<svg width="37" height="37" viewBox="0 0 37 37" fill="none" xmlns="http://www.w3.org/2000/svg">
<path d="M26.188 34.7227L24.0227 21.0249H12.4895L10.3242 34.7227H26.188Z" fill="#C3C7C6" stroke="#C3C7C6" stroke-width="1.2" stroke-linecap="round" stroke-linejoin="round"/>
<path d="M18.2567 25.3554C23.9207 25.3554 28.5124 20.756 28.5124 15.0823C28.5124 9.40871 23.9207 4.80933 18.2567 4.80933C12.5926 4.80933 8.00098 9.40871 8.00098 15.0823C8.00098 20.756 12.5926 25.3554 18.2567 25.3554Z" fill="white" stroke="#C3C7C6" stroke-width="1.5" stroke-linecap="round" stroke-linejoin="round"/>
<path d="M19.7369 3.96755H16.7744V2.48377C16.7744 2.09025 16.9305 1.71285 17.2083 1.43459C17.4861 1.15633 17.8628 1 18.2557 1C18.4502 0.999918 18.6429 1.03824 18.8226 1.11277C19.0024 1.18731 19.1657 1.29661 19.3033 1.43441C19.4408 1.5722 19.5499 1.73581 19.6244 1.91587C19.6988 2.09592 19.737 2.28889 19.7369 2.48377V3.96755Z" fill="#C3C7C6" stroke="#C3C7C6" stroke-width="1.2" stroke-linecap="round" stroke-linejoin="round"/>
<path d="M20.0446 34.7226H16.4668V30.1222C16.4668 29.647 16.6553 29.1912 16.9908 28.8552C17.3262 28.5191 17.7812 28.3303 18.2557 28.3303C18.7301 28.3303 19.1852 28.5191 19.5206 28.8552C19.8561 29.1912 20.0446 29.647 20.0446 30.1222V34.7226Z" fill="white" stroke="white" stroke-width="1.2" stroke-linecap="round" stroke-linejoin="round"/>
<path d="M24.2953 6.82106H12.2164C11.8386 6.82106 11.4763 6.67074 11.2092 6.40317C10.9421 6.1356 10.792 5.77269 10.792 5.39429V5.39429C10.792 5.20692 10.8288 5.02139 10.9004 4.84829C10.972 4.67518 11.0769 4.51791 11.2092 4.38542C11.3414 4.25293 11.4985 4.14783 11.6713 4.07613C11.8441 4.00443 12.0293 3.96753 12.2164 3.96753H24.2953C24.4824 3.96753 24.6676 4.00443 24.8404 4.07613C25.0132 4.14783 25.1703 4.25293 25.3025 4.38542C25.4348 4.51791 25.5397 4.67518 25.6113 4.84829C25.6829 5.02139 25.7197 5.20692 25.7197 5.39429V5.39429C25.7197 5.77269 25.5696 6.1356 25.3025 6.40317C25.0354 6.67074 24.6731 6.82106 24.2953 6.82106V6.82106Z" fill="#C3C7C6" stroke="#C3C7C6" stroke-width="1.2" stroke-linecap="round" stroke-linejoin="round"/>
<path d="M26.9163 32.6677H9.59507C8.71414 32.6677 8 33.3831 8 34.2655V34.2661C8 35.1485 8.71414 35.8639 9.59507 35.8639H26.9163C27.7973 35.8639 28.5114 35.1485 28.5114 34.2661V34.2655C28.5114 33.3831 27.7973 32.6677 26.9163 32.6677Z" fill="#C3C7C6" stroke="#C3C7C6" stroke-width="1.2" stroke-linecap="round" stroke-linejoin="round"/>
<path d="M20.0448 22.2555C21.4292 22.2555 22.5515 21.1313 22.5515 19.7446C22.5515 18.3578 21.4292 17.2336 20.0448 17.2336C18.6604 17.2336 17.5381 18.3578 17.5381 19.7446C17.5381 21.1313 18.6604 22.2555 20.0448 22.2555Z" fill="white" stroke="#C3C7C6" stroke-width="1.2" stroke-linecap="round" stroke-linejoin="round"/>
<path d="M22.663 17.5934C24.0474 17.5934 25.1697 16.4692 25.1697 15.0825C25.1697 13.6957 24.0474 12.5715 22.663 12.5715C21.2785 12.5715 20.1562 13.6957 20.1562 15.0825C20.1562 16.4692 21.2785 17.5934 22.663 17.5934Z" fill="white" stroke="#C3C7C6" stroke-width="1.2" stroke-linecap="round" stroke-linejoin="round"/>
<path d="M16.8885 17.2731C18.273 17.2731 19.3953 16.1489 19.3953 14.7622C19.3953 13.3754 18.273 12.2512 16.8885 12.2512C15.5041 12.2512 14.3818 13.3754 14.3818 14.7622C14.3818 16.1489 15.5041 17.2731 16.8885 17.2731Z" fill="white" stroke="#C3C7C6" stroke-width="1.2" stroke-linecap="round" stroke-linejoin="round"/>
<path d="M15.2352 21.8962C16.6196 21.8962 17.7419 20.772 17.7419 19.3852C17.7419 17.9985 16.6196 16.8743 15.2352 16.8743C13.8508 16.8743 12.7285 17.9985 12.7285 19.3852C12.7285 20.772 13.8508 21.8962 15.2352 21.8962Z" fill="white" stroke="#C3C7C6" stroke-width="1.2" stroke-linecap="round" stroke-linejoin="round"/>
</svg>
