<svg width="37" height="37" viewBox="0 0 37 37" fill="none" xmlns="http://www.w3.org/2000/svg">
<path d="M26.188 34.7232L24.0227 21.0254H12.4895L10.3242 34.7232H26.188Z" fill="#F13C31" stroke="#F13C31" stroke-width="1.2" stroke-linecap="round" stroke-linejoin="round"/>
<path d="M18.2567 25.3556C23.9207 25.3556 28.5124 20.7562 28.5124 15.0826C28.5124 9.40896 23.9207 4.80957 18.2567 4.80957C12.5926 4.80957 8.00098 9.40896 8.00098 15.0826C8.00098 20.7562 12.5926 25.3556 18.2567 25.3556Z" fill="white" stroke="#F13C31" stroke-width="1.5" stroke-linecap="round" stroke-linejoin="round"/>
<path d="M19.7369 3.96755H16.7744V2.48377C16.7744 2.09025 16.9305 1.71285 17.2083 1.43459C17.4861 1.15633 17.8628 1 18.2557 1C18.4502 0.999918 18.6429 1.03824 18.8226 1.11277C19.0024 1.18731 19.1657 1.29661 19.3033 1.43441C19.4408 1.5722 19.5499 1.73581 19.6244 1.91587C19.6988 2.09592 19.737 2.28889 19.7369 2.48377V3.96755Z" fill="#F13C31" stroke="#F13C31" stroke-width="1.2" stroke-linecap="round" stroke-linejoin="round"/>
<path d="M20.0446 34.7224H16.4668V30.122C16.4668 29.6467 16.6553 29.191 16.9908 28.8549C17.3262 28.5189 17.7812 28.3301 18.2557 28.3301C18.7301 28.3301 19.1852 28.5189 19.5206 28.8549C19.8561 29.191 20.0446 29.6467 20.0446 30.122V34.7224Z" fill="white" stroke="white" stroke-width="1.2" stroke-linecap="round" stroke-linejoin="round"/>
<path d="M24.2953 6.82131H12.2164C11.8386 6.82131 11.4763 6.67099 11.2092 6.40341C10.9421 6.13584 10.792 5.77294 10.792 5.39453C10.792 5.20717 10.8288 5.02163 10.9004 4.84853C10.972 4.67543 11.0769 4.51815 11.2092 4.38567C11.3414 4.25318 11.4985 4.14807 11.6713 4.07637C11.8441 4.00467 12.0293 3.96777 12.2164 3.96777H24.2953C24.4824 3.96777 24.6676 4.00467 24.8404 4.07637C25.0132 4.14807 25.1703 4.25318 25.3025 4.38567C25.4348 4.51815 25.5397 4.67543 25.6113 4.84853C25.6829 5.02163 25.7197 5.20717 25.7197 5.39453C25.7197 5.77294 25.5696 6.13584 25.3025 6.40341C25.0354 6.67099 24.6731 6.82131 24.2953 6.82131Z" fill="#F13C31" stroke="#F13C31" stroke-width="1.2" stroke-linecap="round" stroke-linejoin="round"/>
<path d="M26.9163 32.668H9.59507C8.71414 32.668 8 33.3833 8 34.2657V34.2664C8 35.1488 8.71414 35.8641 9.59507 35.8641H26.9163C27.7973 35.8641 28.5114 35.1488 28.5114 34.2664V34.2657C28.5114 33.3833 27.7973 32.668 26.9163 32.668Z" fill="#F13C31" stroke="#F13C31" stroke-width="1.2" stroke-linecap="round" stroke-linejoin="round"/>
<path d="M20.0448 22.2553C21.4292 22.2553 22.5515 21.1311 22.5515 19.7443C22.5515 18.3576 21.4292 17.2334 20.0448 17.2334C18.6604 17.2334 17.5381 18.3576 17.5381 19.7443C17.5381 21.1311 18.6604 22.2553 20.0448 22.2553Z" fill="#FFF5C6" stroke="#F13C31" stroke-width="1.2" stroke-linecap="round" stroke-linejoin="round"/>
<path d="M22.663 17.5932C24.0474 17.5932 25.1697 16.469 25.1697 15.0822C25.1697 13.6955 24.0474 12.5713 22.663 12.5713C21.2785 12.5713 20.1562 13.6955 20.1562 15.0822C20.1562 16.469 21.2785 17.5932 22.663 17.5932Z" fill="#FFF5C6" stroke="#F13C31" stroke-width="1.2" stroke-linecap="round" stroke-linejoin="round"/>
<path d="M16.8885 17.2729C18.273 17.2729 19.3953 16.1487 19.3953 14.7619C19.3953 13.3752 18.273 12.251 16.8885 12.251C15.5041 12.251 14.3818 13.3752 14.3818 14.7619C14.3818 16.1487 15.5041 17.2729 16.8885 17.2729Z" fill="#FFF5C6" stroke="#F13C31" stroke-width="1.2" stroke-linecap="round" stroke-linejoin="round"/>
<path d="M15.2352 21.8959C16.6196 21.8959 17.7419 20.7717 17.7419 19.385C17.7419 17.9982 16.6196 16.874 15.2352 16.874C13.8508 16.874 12.7285 17.9982 12.7285 19.385C12.7285 20.7717 13.8508 21.8959 15.2352 21.8959Z" fill="#FFF5C6" stroke="#F13C31" stroke-width="1.2" stroke-linecap="round" stroke-linejoin="round"/>
</svg>
