<svg width="37" height="37" viewBox="0 0 37 37" fill="none" xmlns="http://www.w3.org/2000/svg">
<circle cx="13.5" cy="23.7998" r="2.5" fill="white" stroke="#C3C7C6"/>
<circle cx="19.5" cy="23.7998" r="2.5" stroke="#C3C7C6"/>
<circle cx="16.5" cy="11.7998" r="2.5" fill="white" stroke="#C3C7C6"/>
<circle cx="24.5" cy="11.7998" r="2.5" fill="white" stroke="#C3C7C6"/>
<circle cx="20.5" cy="8.5" r="2.5" fill="white" stroke="#C3C7C6"/>
<path d="M31.5 27C31.7761 27 32 27.2239 32 27.5L32 30C32 30.2761 31.7761 30.5 31.5 30.5L5.5 30.5C5.22386 30.5 5 30.2761 5 30L5 27.5C5 27.2239 5.22386 27 5.5 27L31.5 27Z" fill="white" stroke="#C3C7C6"/>
<path d="M31.5 15C31.7761 15 32 15.2239 32 15.5L32 18C32 18.2761 31.7761 18.5 31.5 18.5L5.5 18.5C5.22386 18.5 5 18.2761 5 18L5 15.5C5 15.2239 5.22386 15 5.5 15L31.5 15Z" fill="white" stroke="#C3C7C6"/>
<path d="M4 6.5C4 6.22386 4.22386 6 4.5 6H7C7.27614 6 7.5 6.22386 7.5 6.5V32.5C7.5 32.7761 7.27614 33 7 33H4.5C4.22386 33 4 32.7761 4 32.5V6.5Z" fill="white" stroke="#C3C7C6"/>
<path d="M29 6.5C29 6.22386 29.2239 6 29.5 6H32C32.2761 6 32.5 6.22386 32.5 6.5V32.5C32.5 32.7761 32.2761 33 32 33H29.5C29.2239 33 29 32.7761 29 32.5V6.5Z" fill="white" stroke="#C3C7C6"/>
</svg>
