<svg width="37" height="37" viewBox="0 0 37 37" fill="none" xmlns="http://www.w3.org/2000/svg">
<circle cx="13.5" cy="23.7998" r="2.5" fill="#FFF5C6" stroke="#F13C31" stroke-width="1.2"/>
<circle cx="19.5" cy="23.7998" r="2.5" fill="#FFF5C6" stroke="#F13C31" stroke-width="1.2"/>
<path d="M31.5 15C31.7761 15 32 15.2239 32 15.5L32 17C32 17.2761 31.7761 17.5 31.5 17.5L7.5 17.5C7.22386 17.5 7 17.2761 7 17L7 15.5C7 15.2239 7.22386 15 7.5 15L31.5 15Z" fill="#F13C31" stroke="#F13C31"/>
<path d="M31.5 27C31.7761 27 32 27.2239 32 27.5L32 29C32 29.2761 31.7761 29.5 31.5 29.5L7.5 29.5C7.22386 29.5 7 29.2761 7 29L7 27.5C7 27.2239 7.22386 27 7.5 27L31.5 27Z" fill="#F13C31" stroke="#F13C31"/>
<path d="M5 6.5C5 6.22386 5.22386 6 5.5 6H7C7.27614 6 7.5 6.22386 7.5 6.5V32.5C7.5 32.7761 7.27614 33 7 33H5.5C5.22386 33 5 32.7761 5 32.5V6.5Z" fill="#F13C31" stroke="#F13C31"/>
<path d="M30 6.5C30 6.22386 30.2239 6 30.5 6H32C32.2761 6 32.5 6.22386 32.5 6.5V32.5C32.5 32.7761 32.2761 33 32 33H30.5C30.2239 33 30 32.7761 30 32.5V6.5Z" fill="#F13C31" stroke="#F13C31"/>
<circle cx="17.5" cy="11.7998" r="2.5" fill="#FFF5C6" stroke="#F13C31" stroke-width="1.2"/>
<circle cx="25.5" cy="11.7998" r="2.5" fill="#FFF5C6" stroke="#F13C31" stroke-width="1.2"/>
<circle cx="21.5" cy="8.5" r="2.5" fill="#FFF5C6" stroke="#F13C31" stroke-width="1.2"/>
</svg>
