<?xml version="1.0" encoding="UTF-8"?>
<svg xmlns="http://www.w3.org/2000/svg" xmlns:xlink="http://www.w3.org/1999/xlink" width="336" height="80" viewBox="0 0 336 80" version="1.1">
<defs>
<filter id="alpha" filterUnits="objectBoundingBox" x="0%" y="0%" width="100%" height="100%">
  <feColorMatrix type="matrix" in="SourceGraphic" values="0 0 0 0 1 0 0 0 0 1 0 0 0 0 1 0 0 0 1 0"/>
</filter>
<clipPath id="clip1">
  <rect width="336" height="80"/>
</clipPath>
<g id="surface8" clip-path="url(#clip1)">
<path style=" stroke:none;fill-rule:nonzero;fill:rgb(40.391541%,75.292969%,67.0578%);fill-opacity:1;" d="M 0 35 C 0 15.671875 15.671875 0 35 0 L 296 0 C 315.328125 0 336 15.671875 336 35 C 336 54.328125 315.328125 70 296 70 L 35 70 C 15.671875 70 0 54.328125 0 35 Z M 0 35 "/>
</g>
<mask id="mask0">
  <g filter="url(#alpha)">
<use xlink:href="#surface8"/>
  </g>
</mask>
<clipPath id="clip2">
  <rect width="336" height="80"/>
</clipPath>
<g id="surface5" clip-path="url(#clip2)">
<path style=" stroke:none;fill-rule:nonzero;fill:rgb(40.391541%,75.292969%,67.0578%);fill-opacity:1;" d="M 0 35 C 0 15.671875 15.671875 0 35 0 L 296 0 C 315.328125 0 336 15.671875 336 35 C 336 54.328125 315.328125 70 296 70 L 35 70 C 15.671875 70 0 54.328125 0 35 Z M 0 35 "/>
<path style=" stroke:none;fill-rule:nonzero;fill:rgb(54.005432%,84.165955%,69.689941%);fill-opacity:1;" d="M 169.757813 35 C 56.648438 34.621094 1.890625 21.285156 -10.402344 12.769531 L 26.953125 -5.675781 L 255.816406 -18.917969 C 292.542969 -15.136719 361.261719 -3.40625 342.347656 13.242180 C 323.433594 29.890625 219.40625 34.683594 169.757813 35 Z M 169.757813 35 "/>
<path style=" stroke:none;fill-rule:nonzero;fill:rgb(85.832214%,100%,80.09967%);fill-opacity:1;" d="M 49.175781 14.664063 C 49.175781 18.320313 44.519531 21.285156 38.773438 21.285156 C 33.027344 21.285156 28.371094 18.320313 28.371094 14.664063 C 28.371094 11.003906 33.027344 8.039063 38.773438 8.039063 C 44.519531 8.039063 49.175781 11.003906 49.175781 14.664063 Z M 49.175781 14.664063 "/>
<path style=" stroke:none;fill-rule:nonzero;fill:rgb(85.832214%,100%,80.09967%);fill-opacity:1;" d="M 33.101563 31.6875 C 33.101563 33.257813 31.195313 34.527344 28.84375 34.527344 C 26.496094 34.527344 24.589844 33.257813 24.589844 31.6875 C 24.589844 30.121094 26.496094 28.851563 28.84375 28.851563 C 31.195313 28.851563 33.101563 30.121094 33.101563 31.6875 Z M 33.101563 31.6875 "/>
</g>
</defs>
<g id="surface1">
<path style=" stroke:none;fill-rule:nonzero;fill:rgb(89.01825%,54.901123%,54.901123%);fill-opacity:1;" d="M 0 45 C 0 25.671875 15.671875 10 35 10 L 296 10 C 315.328125 10 336 25.671875 336 45 C 336 64.328125 315.328125 80 296 80 L 35 80 C 15.671875 80 0 64.328125 0 45 Z M 0 45 "/>
<path style=" stroke:none;fill-rule:nonzero;fill:rgb(34.117126%,62.35199%,55.685425%);fill-opacity:1;" d="M 0 40 C 0 20.671875 15.671875 5 35 5 L 296 5 C 315.328125 5 336 20.671875 336 40 C 336 59.328125 315.328125 75 296 75 L 35 75 C 15.671875 75 0 59.328125 0 40 Z M 0 40 "/>
<use xlink:href="#surface5" mask="url(#mask0)"/>
</g>
</svg>
