<svg viewBox="0 0 356.02 98.7" xmlns="http://www.w3.org/2000/svg" xmlns:xlink="http://www.w3.org/1999/xlink"><clipPath id="a" transform="translate(-7.38 1.87)"><path d="m17.78 52a35 35 0 0 1 35-35h261a35 35 0 0 1 0 70h-261a35 35 0 0 1 -35-35z"/></clipPath><g transform="translate(-7.38 1.87)"><path d="m17.78 61.83a35 35 0 0 1 35-35h261a35 35 0 0 1 0 70h-261a35 35 0 0 1 -35-35z" fill="#e38c8c"/><path d="m17.78 56.83a35 35 0 0 1 35-35h261a35 35 0 0 1 0 70h-261a35 35 0 0 1 -35-35z" fill="#579f8e"/><path d="m17.78 52a35 35 0 0 1 35-35h261a35 35 0 0 1 0 70h-261a35 35 0 0 1 -35-35z" fill="#67c0ab"/></g><g clip-path="url(#a)"><path d="m187.58 52c-113.1-.4-167.9-13.7-180.2-22.2l37.4-18.5 228.9-13.2c36.6 3.8 105.4 15.5 86.5 32.1s-123 21.53-172.6 21.8z" fill="#8ad7b2" transform="translate(-7.38 1.87)"/></g><path d="m67 31.73c0 3.7-4.7 6.6-10.4 6.6s-10.4-3-10.4-6.6 4.7-6.6 10.4-6.6 10.4 2.87 10.4 6.6z" fill="#dbffe1" transform="translate(-7.38 1.87)"/><path d="m50.88 48.73c0 1.6-1.9 2.8-4.3 2.8s-4.3-1.3-4.3-2.8 1.9-2.8 4.3-2.8 4.3 1.2 4.3 2.8z" fill="#dbffe1" transform="translate(-7.38 1.87)"/></svg>