<svg width="331" height="74" viewBox="0 0 331 74" fill="none" xmlns="http://www.w3.org/2000/svg">
<path d="M0 41.625C0 23.7448 15.67 9.25 35 9.25H296C315.33 9.25 331 23.7448 331 41.625V41.625C331 59.5052 315.33 74 296 74H35C15.67 74 0 59.5052 0 41.625V41.625Z" fill="#E38C8C"/>
<path d="M0 37C0 19.1198 15.67 4.625 35 4.625H296C315.33 4.625 331 19.1198 331 37V37C331 54.8802 315.33 69.375 296 69.375H35C15.67 69.375 0 54.8802 0 37V37Z" fill="#579F8E"/>
<mask id="mask0_1746_80" style="mask-type:alpha" maskUnits="userSpaceOnUse" x="0" y="0" width="331" height="65">
<path d="M0 32.375C0 14.4948 15.67 0 35 0H296C315.33 0 331 14.4948 331 32.375V32.375C331 50.2552 315.33 64.75 296 64.75H35C15.67 64.75 0 50.2552 0 32.375V32.375Z" fill="#67C0AB"/>
</mask>
<g mask="url(#mask0_1746_80)">
<path d="M0 32.375C0 14.4948 15.67 0 35 0H296C315.33 0 331 14.4948 331 32.375V32.375C331 50.2552 315.33 64.75 296 64.75H35C15.67 64.75 0 50.2552 0 32.375V32.375Z" fill="#67C0AB"/>
<path d="M170.167 32C57.0543 31.6912 15.2949 24.4474 3 17.5L12.5 6.49999L27.5 -0.500007H236C300.5 -0.500007 315.512 -2.477 324.5 14.5C329 23 219.82 31.7427 170.167 32Z" fill="#8AD7B2"/>
<path d="M49.1768 13.5629C49.1768 16.9457 44.5193 19.6879 38.774 19.6879C33.0286 19.6879 28.3711 16.9457 28.3711 13.5629C28.3711 10.1802 33.0286 7.43793 38.774 7.43793C44.5193 7.43793 49.1768 10.1802 49.1768 13.5629Z" fill="#DBFFE1"/>
<path d="M33.1003 29.3127C33.1003 30.7624 31.1949 31.9377 28.8446 31.9377C26.4942 31.9377 24.5889 30.7624 24.5889 29.3127C24.5889 27.8629 26.4942 26.6877 28.8446 26.6877C31.1949 26.6877 33.1003 27.8629 33.1003 29.3127Z" fill="#DBFFE1"/>
</g>
</svg>
