<svg width="363" height="156" viewBox="0 0 363 156" fill="none" xmlns="http://www.w3.org/2000/svg">
<circle cx="327" cy="146" r="10" fill="#93430D"/>
<circle cx="36" cy="146" r="10" fill="#93430D"/>
<path d="M18.5 98V100L345.5 99V98C345.5 95.7909 343.709 94 341.5 94H22.5C20.2909 94 18.5 95.7909 18.5 98Z" fill="#E69215" stroke="#E69215" stroke-linejoin="round"/>
<path d="M18.5 99V115.5L345.5 117V99H18.5Z" fill="#D67E10" stroke="#D67E10" stroke-linejoin="round"/>
<path d="M1 131.5L21.5 109.5H343L362.5 131.5H1Z" fill="#FEB20E" stroke="#FEB20E" stroke-linejoin="round"/>
<path d="M1 137V131.5H362.5V137C362.5 141.418 358.918 145 354.5 145H9C4.58172 145 1 141.418 1 137Z" fill="#D3730C" stroke="#D3730C" stroke-linejoin="round"/>
<path d="M340 116.289C340 129.229 269.711 123.755 183.005 123.755C96.2995 123.755 25.0042 132.216 26.0105 116.289C25.0041 106.334 96.2995 108.823 183.005 108.823C269.711 108.823 340 104.343 340 116.289Z" fill="#F59C0E"/>
<rect x="26" y="1" width="312" height="117" rx="20" fill="#FEFEF4" stroke="#D7A542" stroke-width="2"/>
<rect x="39" y="10" width="136" height="99" rx="11" fill="#EBE4CE" stroke="#D6D2BA" stroke-width="2"/>
<rect x="196.409" y="42.4086" width="54.1828" height="20.1828" rx="2.04301" fill="#FEFEF4" stroke="#A6A18D" stroke-width="0.817204"/>
<path d="M201.969 45.3873H201.074V46.2835H201.969V45.3873Z" fill="#A6A18D"/>
<path d="M201.969 57.7554H201.074V55.9134H201.969V57.7554ZM201.969 54.8878H201.074V53.0438H201.969V54.8878ZM201.969 52.0202H201.074V50.1762H201.969V52.0202ZM201.969 49.1526H201.074V47.3086H201.969V49.1526Z" fill="#A6A18D"/>
<path d="M201.969 58.78H201.074V59.6762H201.969V58.78Z" fill="#A6A18D"/>
<g clip-path="url(#clip0_1327_2566)">
<path d="M270.5 52.7436C266.49 52.7436 263.413 54.0607 263 61.9988H278C277.587 54.0607 274.51 52.7436 270.5 52.7436Z" fill="#A6A18D"/>
<path d="M268.536 44.7036C266.364 46.2137 267.018 48.5341 267.279 48.8776C269.068 51.2654 272.863 50.3759 273.585 49.2329C274.342 48.0331 273.855 45.2389 272.426 45.0719C271.806 43.6956 269.946 43.724 268.536 44.7036Z" fill="#A6A18D"/>
<mask id="path-16-outside-1_1327_2566" maskUnits="userSpaceOnUse" x="266.004" y="44.2197" width="9" height="11" fill="black">
<rect fill="white" x="266.004" y="44.2197" width="9" height="11"/>
<path fill-rule="evenodd" clip-rule="evenodd" d="M272.317 51.7271C272.741 51.3134 273.021 50.7378 273.17 50.0683C273.701 50.1693 273.982 49.6463 273.996 49.1903C274.008 48.7502 273.714 48.3571 273.289 48.3604C273.202 46.589 272.566 45.2197 270.5 45.2197C268.434 45.2197 267.798 46.589 267.711 48.3604C267.285 48.3572 266.992 48.7502 267.004 49.1903C267.018 49.6463 267.299 50.1693 267.829 50.0684C267.977 50.7323 268.255 51.3039 268.673 51.7168C268.657 52.275 268.636 52.9705 268.625 53.1608C268.608 53.4415 269.368 53.7294 270.471 53.7294C271.575 53.7294 272.386 53.4925 272.374 53.2615C272.36 52.9928 272.347 52.5945 272.333 52.1951C272.328 52.0366 272.322 51.8779 272.317 51.7271Z"/>
</mask>
<path fill-rule="evenodd" clip-rule="evenodd" d="M272.317 51.7271C272.741 51.3134 273.021 50.7378 273.17 50.0683C273.701 50.1693 273.982 49.6463 273.996 49.1903C274.008 48.7502 273.714 48.3571 273.289 48.3604C273.202 46.589 272.566 45.2197 270.5 45.2197C268.434 45.2197 267.798 46.589 267.711 48.3604C267.285 48.3572 266.992 48.7502 267.004 49.1903C267.018 49.6463 267.299 50.1693 267.829 50.0684C267.977 50.7323 268.255 51.3039 268.673 51.7168C268.657 52.275 268.636 52.9705 268.625 53.1608C268.608 53.4415 269.368 53.7294 270.471 53.7294C271.575 53.7294 272.386 53.4925 272.374 53.2615C272.36 52.9928 272.347 52.5945 272.333 52.1951C272.328 52.0366 272.322 51.8779 272.317 51.7271Z" fill="white"/>
<path d="M272.317 51.7271L271.898 51.2977L271.708 51.4832L271.717 51.7485L272.317 51.7271ZM273.17 50.0683L273.283 49.4789L272.711 49.3702L272.585 49.9379L273.17 50.0683ZM273.996 49.1903L274.595 49.2076L274.595 49.2076L273.996 49.1903ZM273.289 48.3604L272.689 48.3897L272.718 48.9648L273.293 48.9604L273.289 48.3604ZM267.711 48.3604L267.707 48.9604L268.282 48.9647L268.31 48.3897L267.711 48.3604ZM267.004 49.1903L267.604 49.1729L267.604 49.1729L267.004 49.1903ZM267.829 50.0684L268.415 49.9379L268.289 49.3703L267.717 49.4789L267.829 50.0684ZM268.673 51.7168L269.272 51.7335L269.28 51.4731L269.094 51.29L268.673 51.7168ZM268.625 53.1608L269.224 53.1974L269.224 53.1959L268.625 53.1608ZM272.374 53.2615L271.774 53.2913L271.774 53.2941L272.374 53.2615ZM272.333 52.1951L272.933 52.1747L272.933 52.1747L272.333 52.1951ZM272.736 52.1564C273.265 51.6403 273.589 50.9485 273.756 50.1988L272.585 49.9379C272.454 50.5271 272.217 50.9864 271.898 51.2977L272.736 52.1564ZM273.058 50.6578C273.575 50.7561 273.993 50.5337 274.248 50.21C274.482 49.9133 274.586 49.5359 274.595 49.2076L273.396 49.1729C273.394 49.2304 273.384 49.2916 273.366 49.3475C273.347 49.404 273.324 49.4433 273.306 49.4663C273.289 49.4882 273.282 49.4875 273.292 49.4836C273.305 49.4781 273.307 49.4836 273.283 49.4789L273.058 50.6578ZM274.595 49.2076C274.615 48.5343 274.148 47.7538 273.284 47.7604L273.293 48.9604C273.305 48.9603 273.31 48.9624 273.314 48.9643C273.319 48.9668 273.329 48.9734 273.342 48.9891C273.37 49.0229 273.398 49.0877 273.396 49.1729L274.595 49.2076ZM273.888 48.331C273.842 47.4 273.651 46.4695 273.114 45.7629C272.551 45.0206 271.68 44.6197 270.5 44.6197V45.8197C271.385 45.8197 271.866 46.1035 272.159 46.4887C272.478 46.9096 272.648 47.5494 272.689 48.3897L273.888 48.331ZM270.5 44.6197C269.319 44.6197 268.449 45.0206 267.886 45.7629C267.349 46.4695 267.157 47.4 267.112 48.331L268.31 48.3897C268.352 47.5494 268.522 46.9096 268.841 46.4887C269.134 46.1035 269.615 45.8197 270.5 45.8197V44.6197ZM267.716 47.7604C266.852 47.7539 266.385 48.5344 266.405 49.2076L267.604 49.1729C267.602 49.0877 267.63 49.0229 267.658 48.9891C267.671 48.9734 267.681 48.9668 267.686 48.9643C267.69 48.9624 267.695 48.9603 267.707 48.9604L267.716 47.7604ZM266.405 49.2076C266.414 49.5359 266.518 49.9132 266.752 50.21C267.007 50.5336 267.424 50.7561 267.941 50.6578L267.717 49.4789C267.693 49.4836 267.695 49.4781 267.708 49.4836C267.718 49.4875 267.711 49.4882 267.694 49.4663C267.676 49.4433 267.653 49.404 267.634 49.3475C267.616 49.2916 267.606 49.2304 267.604 49.1729L266.405 49.2076ZM267.244 50.1988C267.409 50.9424 267.73 51.6289 268.251 52.1436L269.094 51.29C268.779 50.9788 268.545 50.5222 268.415 49.9379L267.244 50.1988ZM268.073 51.7002C268.057 52.2648 268.037 52.9473 268.026 53.1257L269.224 53.1959C269.236 52.9937 269.257 52.2852 269.272 51.7335L268.073 51.7002ZM268.026 53.1242C268.004 53.4915 268.24 53.7314 268.385 53.843C268.546 53.9672 268.744 54.0557 268.941 54.1204C269.342 54.2522 269.874 54.3294 270.471 54.3294V53.1294C269.965 53.1294 269.566 53.0626 269.316 52.9803C269.187 52.9379 269.129 52.9019 269.118 52.8931C269.09 52.8718 269.238 52.9705 269.224 53.1974L268.026 53.1242ZM270.471 54.3294C271.06 54.3294 271.592 54.2667 271.992 54.1628C272.187 54.1121 272.383 54.0434 272.544 53.9472C272.625 53.8993 272.724 53.8284 272.807 53.7255C272.893 53.6188 272.985 53.4481 272.973 53.2289L271.774 53.2941C271.766 53.1326 271.834 53.0199 271.874 52.9703C271.911 52.9246 271.941 52.9101 271.929 52.9169C271.907 52.9301 271.834 52.9639 271.69 53.0013C271.412 53.0736 270.986 53.1294 270.471 53.1294V54.3294ZM272.973 53.2317C272.96 52.9689 272.946 52.5762 272.933 52.1747L271.733 52.2155C271.747 52.6128 271.761 53.0168 271.774 53.2913L272.973 53.2317ZM272.933 52.1747C272.927 52.0163 272.922 51.8571 272.917 51.7056L271.717 51.7485C271.723 51.8987 271.728 52.0569 271.733 52.2155L272.933 52.1747Z" fill="#A6A18D" mask="url(#path-16-outside-1_1327_2566)"/>
<path d="M267.511 48.6124C267.344 46.6545 268.083 44.9098 269.864 44.3827C271.142 44.0037 272.42 44.3401 272.252 45.887C272.033 47.9005 268.68 46.8949 267.794 48.4063C267.732 48.5141 267.536 48.9191 267.511 48.6124Z" fill="#A6A18D"/>
<path d="M272.108 46.1083C272.108 46.1083 272.337 47.6647 273.188 48.3824C273.948 49.0232 273.803 48.4381 273.793 47.7168C273.785 47.0748 273.423 45.9105 272.774 45.6144C271.871 45.201 272.108 46.1083 272.108 46.1083Z" fill="#A6A18D"/>
</g>
<g clip-path="url(#clip1_1327_2566)">
<path d="M287.679 56.5715L285 53.8929L282.321 56.5715L281.429 55.6786L284.107 53L281.429 50.3214L282.321 49.4286L285 52.1072L287.679 49.4286L288.571 50.3214L285.893 53L288.571 55.6786L287.679 56.5715Z" fill="#A6A18D"/>
</g>
<line x1="196" y1="34.5" x2="308" y2="34.5" stroke="#D3D5C7" stroke-dasharray="1.5 2"/>
<defs>
<clipPath id="clip0_1327_2566">
<rect width="15" height="18" fill="white" transform="translate(263 44)"/>
</clipPath>
<clipPath id="clip1_1327_2566">
<rect width="10" height="10" fill="white" transform="translate(280 48)"/>
</clipPath>
</defs>
</svg>
