<svg width="400" height="130" viewBox="0 0 375 122" fill="none" xmlns="http://www.w3.org/2000/svg">
<g clip-path="url(#clip0_1326_2246)">
<g filter="url(#filter0_d_1326_2246)">
<path d="M72.5 79.9209C72.5 101.46 56.0391 118.921 34.5 118.921C12.9609 118.921 -2 101.039 -2 79.5C-2 57.9609 12.9609 40.9209 34.5 40.9209C56.0391 40.9209 72.5 58.3818 72.5 79.9209Z" fill="#FFE6AE"/>
<path d="M72 79.9209C72 101.201 55.7461 118.421 34.5 118.421C13.2862 118.421 -1.5 100.815 -1.5 79.5C-1.5 58.1997 13.2729 41.4209 34.5 41.4209C55.7461 41.4209 72 58.6408 72 79.9209Z" stroke="#FFE6AE"/>
</g>
<g filter="url(#filter1_d_1326_2246)">
<path d="M305 80.5C305 102.039 291.66 119 265.5 119C244.237 119 227 101.539 227 80C227 58.4609 244.237 41 265.5 41C286.763 41 305 58.9609 305 80.5Z" fill="#F38445"/>
<path d="M304.5 80.5C304.5 91.1679 301.198 100.66 294.698 107.482C288.203 114.3 278.468 118.5 265.5 118.5C244.519 118.5 227.5 101.269 227.5 80C227.5 58.7309 244.519 41.5 265.5 41.5C286.489 41.5 304.5 59.2393 304.5 80.5Z" stroke="#F38445"/>
</g>
<g filter="url(#filter2_d_1326_2246)">
<path d="M376.5 80C376.5 101.539 365.34 119 338.5 119C316.685 119 301.5 102.039 301.5 80.5C301.5 58.9609 316.685 41 338.5 41C360.315 41 376.5 58.4609 376.5 80Z" fill="#FFE6AE"/>
<path d="M376 80C376 90.6899 373.23 100.309 367.188 107.249C361.156 114.177 351.805 118.5 338.5 118.5C316.989 118.5 302 101.792 302 80.5C302 59.1906 317.005 41.5 338.5 41.5C360.02 41.5 376 58.7174 376 80Z" stroke="#FFE6AE"/>
</g>
<g filter="url(#filter3_d_1326_2246)">
<path d="M231.5 80C231.5 101.539 213.5 119 187 119C165.461 119 141 102.039 141 80.5C141 58.9609 165.461 41 187 41C208.539 41 231.5 58.4609 231.5 80Z" fill="#FFE6AE"/>
<path d="M231 80C231 101.216 213.273 118.5 187 118.5C176.352 118.5 164.959 114.304 156.232 107.434C147.504 100.564 141.5 91.071 141.5 80.5C141.5 69.9258 147.508 60.1807 156.239 53.0603C164.969 45.9409 176.36 41.5 187 41.5C197.641 41.5 208.655 45.8168 217.006 52.8063C225.357 59.7954 231 69.4153 231 80Z" stroke="#FFE6AE"/>
</g>
<g filter="url(#filter4_d_1326_2246)">
<path d="M145.5 80.5C145.5 102.039 130.539 119 109 119C87.4609 119 68 101.539 68 80C68 58.4609 87.4609 41 109 41C130.539 41 145.5 58.9609 145.5 80.5Z" fill="#F38445"/>
<path d="M145 80.5C145 101.799 130.228 118.5 109 118.5C87.7043 118.5 68.5 101.231 68.5 80C68.5 58.7687 87.7043 41.5 109 41.5C130.213 41.5 145 59.1838 145 80.5Z" stroke="#F38445"/>
</g>
<path d="M64 0H0V80L64 0Z" fill="#FB8032" stroke="#FB8032"/>
<path d="M117 0H64L0 81H71L117 0Z" fill="#FFF3D1" stroke="#FFF3D1"/>
<path d="M165 0H117.257L72 81H144.61L165 0Z" fill="#FB8032" stroke="#FB8033"/>
<path d="M211 0H165.5L145 81H230L211 0Z" fill="#FFF3D1" stroke="#FFF3D1"/>
<path d="M260 0H211L230 81H304L260 0Z" fill="#FB8032" stroke="#FB8033"/>
<path d="M311.775 0H260L303.81 81H375L311.775 0Z" fill="#FFF3D1" stroke="#FFF3D1"/>
<path d="M375 0H312L375 80V0Z" fill="#FB8032" stroke="#FD7F32"/>
</g>
<rect x="33.5" y="40.5" width="308.707" height="59" rx="10.5" fill="#FFFBDE" stroke="#F4D18F"/>
<ellipse cx="44.3448" cy="51.1866" rx="3.40337" ry="3.05085" fill="#DEBA72"/>
<ellipse cx="44.3448" cy="87.796" rx="3.40337" ry="3.05085" fill="#DEBA72"/>
<ellipse cx="330.228" cy="51.1866" rx="3.40337" ry="3.05085" fill="#DEBA72"/>
<ellipse cx="330.228" cy="87.796" rx="3.40337" ry="3.05085" fill="#DEBA72"/>
<path d="M240.789 58.6211L238.746 81.6829L230.912 82.0533V59.0974L240.789 58.6211Z" fill="#683719"/>
<path d="M266.697 70.4977C266.701 71.4998 266.57 72.4985 266.308 73.4717C266.056 74.4043 265.68 75.3054 265.188 76.1547C264.701 76.9831 264.102 77.7528 263.406 78.446C261.996 79.8475 260.188 80.8674 258.183 81.3936C257.122 81.6731 256.021 81.8121 254.916 81.8063C253.84 81.8118 252.768 81.6818 251.73 81.42C250.741 81.167 249.791 80.7988 248.904 80.3246C248.027 79.861 247.223 79.2914 246.513 78.6312C245.805 77.975 245.194 77.2367 244.697 76.4352C244.195 75.6138 243.805 74.7394 243.536 73.8316C243.254 72.8882 243.114 71.9146 243.118 70.9369C243.118 69.9644 243.251 68.9956 243.513 68.0529C243.766 67.1324 244.142 66.2438 244.633 65.4069C245.117 64.575 245.714 63.8017 246.409 63.105C247.092 62.4117 247.873 61.8032 248.73 61.2952C249.597 60.7832 250.539 60.3841 251.527 60.1098C252.555 59.8221 253.626 59.6793 254.702 59.6865C256.375 59.6676 258.039 59.9258 259.611 60.4485C261.03 60.9109 262.322 61.6493 263.398 62.6124C264.473 63.5755 265.306 64.7403 265.838 66.0261C266.429 67.4543 266.721 68.9712 266.697 70.4977V70.4977ZM258.456 70.9369C258.457 70.458 258.379 69.9817 258.224 69.524C258.077 69.0854 257.847 68.6735 257.545 68.3069C257.25 67.9504 256.874 67.6562 256.442 67.4444C255.977 67.2167 255.456 67.1019 254.928 67.111C254.391 67.1044 253.858 67.2036 253.367 67.402C252.925 67.5896 252.53 67.858 252.206 68.1905C251.875 68.5298 251.621 68.9255 251.458 69.3547C251.283 69.8087 251.195 70.2865 251.196 70.7676C251.198 71.249 251.272 71.7281 251.417 72.1911C251.558 72.651 251.784 73.0857 252.084 73.477C252.377 73.8556 252.755 74.1731 253.193 74.4083C253.658 74.6535 254.188 74.7763 254.725 74.7629C255.267 74.7715 255.803 74.6646 256.292 74.4507C256.741 74.248 257.137 73.9591 257.452 73.604C257.781 73.2404 258.033 72.8241 258.195 72.3763C258.37 71.9131 258.458 71.4267 258.456 70.9369V70.9369Z" fill="#683719"/>
<path d="M294.469 59.018L293.151 81.9845L283.419 82.7995L278.196 70.5066L277.384 83.0376H269.027L269.695 59.0286L278.98 58.6211L285.404 70.7923L285.7 59.2773L294.469 59.018Z" fill="#683719"/>
<path d="M100.909 59.5547L99.8704 66.6987C99.5184 66.6103 99.1594 66.5466 98.7968 66.5082C98.437 66.4764 98.0772 66.4606 97.7174 66.4606C96.8324 66.4575 95.9514 66.568 95.1001 66.7887C94.303 66.9945 93.5565 67.3377 92.9007 67.7994C92.261 68.2527 91.7413 68.8314 91.3803 69.4928C90.9785 70.234 90.7793 71.0528 90.8 71.8794C90.7879 72.4012 90.8925 72.9198 91.1075 73.4034C91.2991 73.814 91.5955 74.1769 91.9722 74.4618C92.3575 74.7531 92.8067 74.9659 93.2895 75.0862C93.8326 75.2289 94.3957 75.2984 94.9608 75.2926C95.4405 75.2894 95.9187 75.2433 96.3885 75.155C96.8855 75.0648 97.3758 74.9464 97.8567 74.8005C98.3364 74.6463 98.8071 74.4697 99.2669 74.2713C99.6979 74.0942 100.118 73.8964 100.526 73.6786L99.7834 81.6164C99.2771 81.8489 98.7535 82.0487 98.2164 82.2144C97.6361 82.389 97.0558 82.5424 96.4755 82.6747C95.8877 82.8016 95.293 82.9005 94.6939 82.9711C94.1163 83.0357 93.5349 83.0693 92.9529 83.0716C90.7448 83.0906 88.5813 82.5044 86.7426 81.3892C84.904 80.274 83.475 78.681 82.6406 76.8167C82.0602 75.524 81.7682 74.1388 81.7817 72.742C81.7689 70.8914 82.0744 69.0504 82.687 67.2861C83.2521 65.6433 84.1606 64.1159 85.3623 62.788C86.5556 61.4915 88.0475 60.4507 89.7321 59.7399C91.6198 58.9693 93.6707 58.588 95.7385 58.6233C96.6186 58.6259 97.4973 58.6879 98.3673 58.8086C99.2515 58.9372 100.109 59.1888 100.909 59.5547V59.5547Z" fill="#683719"/>
<path d="M205.791 59.539L204.758 66.6988C204.407 66.6094 204.048 66.5457 203.685 66.5083C203.325 66.4766 202.965 66.4607 202.605 66.4607C201.72 66.4577 200.839 66.5681 199.988 66.7888C199.191 66.9947 198.444 67.3377 197.789 67.7995C197.149 68.2527 196.629 68.8316 196.268 69.4929C195.869 70.2349 195.67 71.0532 195.688 71.8795C195.676 72.4013 195.781 72.9199 195.996 73.4036C196.187 73.8142 196.484 74.1771 196.86 74.462C197.246 74.7521 197.695 74.9649 198.178 75.0864C198.721 75.229 199.284 75.2985 199.849 75.2928C200.329 75.2898 200.807 75.2437 201.276 75.1552C201.774 75.0656 202.264 74.9472 202.745 74.8006C203.224 74.6464 203.695 74.4698 204.155 74.2715C204.613 74.081 205.031 73.8851 205.42 73.6787L204.677 81.6165C204.168 81.8481 203.643 82.0479 203.105 82.2144C202.524 82.3891 201.944 82.5425 201.364 82.6748C200.776 82.8017 200.181 82.9007 199.582 82.9712C199.016 83.035 198.446 83.0685 197.876 83.0717C195.666 83.0964 193.5 82.5127 191.66 81.3967C189.82 80.2807 188.392 78.6846 187.563 76.8168C186.978 75.5252 186.684 74.1395 186.699 72.7421C186.685 70.8911 186.992 69.0496 187.61 67.2862C188.173 65.6438 189.079 64.1163 190.279 62.7882C191.473 61.4902 192.968 60.4493 194.655 59.7401C196.542 58.9683 198.593 58.587 200.661 58.6235C201.539 58.6261 202.416 58.688 203.284 58.8087C204.155 58.9367 205 59.1829 205.791 59.539V59.539Z" fill="#683719"/>
<path d="M126.829 70.4977C126.833 71.4998 126.702 72.4986 126.44 73.4717C126.186 74.4046 125.808 75.3056 125.314 76.1547C124.831 76.9854 124.232 77.7556 123.532 78.4461C122.123 79.8497 120.316 80.87 118.309 81.3937C117.248 81.6732 116.147 81.8121 115.042 81.8064C113.966 81.8119 112.894 81.6819 111.856 81.4201C110.865 81.1671 109.913 80.7989 109.024 80.3247C108.15 79.8596 107.348 79.2901 106.639 78.6313C105.929 77.9752 105.316 77.2369 104.817 76.4352C104.315 75.6139 103.925 74.7395 103.656 73.8316C103.375 72.8883 103.234 71.9146 103.238 70.937C103.236 69.9647 103.367 68.9959 103.627 68.0529C103.882 67.1322 104.26 66.2436 104.753 65.407C105.228 64.5778 105.813 63.8047 106.494 63.1051C107.178 62.412 107.958 61.8036 108.815 61.2953C109.68 60.7831 110.62 60.384 111.607 60.1099C112.635 59.8224 113.705 59.6797 114.781 59.6866C116.455 59.6672 118.118 59.9254 119.691 60.4486C121.111 60.9133 122.403 61.6544 123.477 62.6203C124.551 63.5862 125.382 64.7539 125.912 66.0421C126.521 67.4618 126.832 68.9732 126.829 70.4977ZM118.582 70.937C118.583 70.4581 118.505 69.9817 118.35 69.5241C118.207 69.0848 117.979 68.6726 117.677 68.307C117.38 67.9503 117.001 67.6561 116.568 67.4444C116.106 67.2161 115.586 67.1012 115.06 67.111C114.522 67.1039 113.99 67.2032 113.499 67.402C113.055 67.5878 112.66 67.8564 112.338 68.1905C112.003 68.5282 111.746 68.9243 111.583 69.3547C111.409 69.8088 111.321 70.2865 111.322 70.7676C111.323 71.2495 111.399 71.7289 111.549 72.1912C111.688 72.6519 111.913 73.087 112.216 73.477C112.507 73.8554 112.883 74.173 113.319 74.4084C113.784 74.6516 114.314 74.7742 114.851 74.763C115.394 74.7723 115.933 74.6654 116.423 74.4508C116.871 74.2465 117.267 73.9579 117.584 73.604C117.911 73.2391 118.163 72.8232 118.327 72.3764C118.499 71.9129 118.586 71.4264 118.582 70.937Z" fill="#683719"/>
<path d="M145.57 73.4859L144.792 81.0003L129.158 82.1168C129.232 78.1797 129.315 74.2638 129.408 70.369C129.501 66.4742 129.615 62.5582 129.75 58.6211H139.407C139.12 61.0906 138.848 63.5601 138.588 66.0297C138.329 68.4992 138.136 70.9864 138.008 73.4912C138.588 73.4912 139.169 73.5229 139.749 73.5229H141.49C142.186 73.5229 142.865 73.5229 143.533 73.5229C144.2 73.5229 144.891 73.4859 145.57 73.4859Z" fill="#683719"/>
<path d="M164.327 73.4806L163.532 81.0003L147.898 82.1168C147.976 78.1797 148.059 74.2638 148.148 70.369C148.237 66.4742 148.351 62.5582 148.49 58.6211H158.147C157.861 61.0906 157.588 63.5601 157.329 66.0297C157.069 68.4992 156.876 70.9864 156.748 73.4912C157.329 73.4912 157.909 73.5229 158.489 73.5229H160.23C160.927 73.5229 161.606 73.5229 162.273 73.5229C162.94 73.5229 163.637 73.4806 164.327 73.4806Z" fill="#683719"/>
<path d="M184.37 58.6211C184.296 59.6795 184.227 60.7378 184.161 61.7962C184.103 62.8546 184.022 63.9129 183.923 64.9713L176.048 65.3418L175.862 67.4585H181.398L180.986 72.7079L175.421 72.8773L175.235 75.3486H183.105C183.027 76.5868 182.95 77.8216 182.872 79.0528C182.795 80.2841 182.723 81.5188 182.658 82.7571L166.658 83.0958L167.239 58.6793L184.37 58.6211Z" fill="#683719"/>
<path d="M228.582 58.6211L228.397 65.7968L222.866 66.0032L221.45 82.0533L213.616 82.4237L213.656 66.3736L208.12 66.6435L208.346 58.6528L228.582 58.6211Z" fill="#683719"/>
<defs>
<filter id="filter0_d_1326_2246" x="-2" y="40.9209" width="74.5" height="81" filterUnits="userSpaceOnUse" color-interpolation-filters="sRGB">
<feFlood flood-opacity="0" result="BackgroundImageFix"/>
<feColorMatrix in="SourceAlpha" type="matrix" values="0 0 0 0 0 0 0 0 0 0 0 0 0 0 0 0 0 0 127 0" result="hardAlpha"/>
<feOffset dy="3"/>
<feComposite in2="hardAlpha" operator="out"/>
<feColorMatrix type="matrix" values="0 0 0 0 0.995833 0 0 0 0 0.847912 0 0 0 0 0.53526 0 0 0 1 0"/>
<feBlend mode="normal" in2="BackgroundImageFix" result="effect1_dropShadow_1326_2246"/>
<feBlend mode="normal" in="SourceGraphic" in2="effect1_dropShadow_1326_2246" result="shape"/>
</filter>
<filter id="filter1_d_1326_2246" x="227" y="41" width="78" height="81" filterUnits="userSpaceOnUse" color-interpolation-filters="sRGB">
<feFlood flood-opacity="0" result="BackgroundImageFix"/>
<feColorMatrix in="SourceAlpha" type="matrix" values="0 0 0 0 0 0 0 0 0 0 0 0 0 0 0 0 0 0 127 0" result="hardAlpha"/>
<feOffset dy="3"/>
<feComposite in2="hardAlpha" operator="out"/>
<feColorMatrix type="matrix" values="0 0 0 0 0.904167 0 0 0 0 0.498807 0 0 0 0 0.226042 0 0 0 1 0"/>
<feBlend mode="normal" in2="BackgroundImageFix" result="effect1_dropShadow_1326_2246"/>
<feBlend mode="normal" in="SourceGraphic" in2="effect1_dropShadow_1326_2246" result="shape"/>
</filter>
<filter id="filter2_d_1326_2246" x="301.5" y="41" width="75" height="81" filterUnits="userSpaceOnUse" color-interpolation-filters="sRGB">
<feFlood flood-opacity="0" result="BackgroundImageFix"/>
<feColorMatrix in="SourceAlpha" type="matrix" values="0 0 0 0 0 0 0 0 0 0 0 0 0 0 0 0 0 0 127 0" result="hardAlpha"/>
<feOffset dy="3"/>
<feComposite in2="hardAlpha" operator="out"/>
<feColorMatrix type="matrix" values="0 0 0 0 0.995833 0 0 0 0 0.847912 0 0 0 0 0.53526 0 0 0 1 0"/>
<feBlend mode="normal" in2="BackgroundImageFix" result="effect1_dropShadow_1326_2246"/>
<feBlend mode="normal" in="SourceGraphic" in2="effect1_dropShadow_1326_2246" result="shape"/>
</filter>
<filter id="filter3_d_1326_2246" x="141" y="41" width="90.5" height="81" filterUnits="userSpaceOnUse" color-interpolation-filters="sRGB">
<feFlood flood-opacity="0" result="BackgroundImageFix"/>
<feColorMatrix in="SourceAlpha" type="matrix" values="0 0 0 0 0 0 0 0 0 0 0 0 0 0 0 0 0 0 127 0" result="hardAlpha"/>
<feOffset dy="3"/>
<feComposite in2="hardAlpha" operator="out"/>
<feColorMatrix type="matrix" values="0 0 0 0 0.995833 0 0 0 0 0.847912 0 0 0 0 0.53526 0 0 0 1 0"/>
<feBlend mode="normal" in2="BackgroundImageFix" result="effect1_dropShadow_1326_2246"/>
<feBlend mode="normal" in="SourceGraphic" in2="effect1_dropShadow_1326_2246" result="shape"/>
</filter>
<filter id="filter4_d_1326_2246" x="68" y="41" width="77.5" height="81" filterUnits="userSpaceOnUse" color-interpolation-filters="sRGB">
<feFlood flood-opacity="0" result="BackgroundImageFix"/>
<feColorMatrix in="SourceAlpha" type="matrix" values="0 0 0 0 0 0 0 0 0 0 0 0 0 0 0 0 0 0 127 0" result="hardAlpha"/>
<feOffset dy="3"/>
<feComposite in2="hardAlpha" operator="out"/>
<feColorMatrix type="matrix" values="0 0 0 0 0.904167 0 0 0 0 0.498807 0 0 0 0 0.226042 0 0 0 1 0"/>
<feBlend mode="normal" in2="BackgroundImageFix" result="effect1_dropShadow_1326_2246"/>
<feBlend mode="normal" in="SourceGraphic" in2="effect1_dropShadow_1326_2246" result="shape"/>
</filter>
<clipPath id="clip0_1326_2246">
<rect width="375" height="122" fill="white"/>
</clipPath>
</defs>
</svg>
