<svg width="268" height="41" viewBox="0 0 268 41" fill="none" xmlns="http://www.w3.org/2000/svg">
<g filter="url(#filter0_d_490_1001)">
<path d="M134 0H258C263.523 0 268 4.47715 268 10V28C268 33.5228 263.523 38 258 38H134V0Z" fill="#20BDBD"/>
<path d="M134.5 0.5H258C263.247 0.5 267.5 4.7533 267.5 10V28C267.5 33.2467 263.247 37.5 258 37.5H134.5V0.5Z" stroke="#1BA0A0"/>
</g>
<path d="M157.629 13.35V15.435C158.049 15.405 158.859 15.375 159.489 15.375H166.224V21.585H159.309C158.634 21.585 157.959 21.54 157.434 21.495V23.64C157.929 23.595 158.784 23.55 159.369 23.55H166.209C166.209 23.835 166.209 24.09 166.194 24.33H168.369C168.339 23.88 168.309 23.085 168.309 22.56V14.79C168.309 14.355 168.339 13.755 168.354 13.41C168.099 13.425 167.469 13.44 167.034 13.44H159.474C158.964 13.44 158.184 13.41 157.629 13.35ZM173.49 23.4L174.915 24.63C175.26 24.405 175.59 24.3 175.8 24.225C179.34 23.07 182.445 21.285 184.5 18.825L183.435 17.13C181.515 19.47 178.17 21.39 175.725 22.095V14.295C175.725 13.71 175.785 13.17 175.875 12.585H173.52C173.61 13.02 173.685 13.725 173.685 14.295V22.425C173.685 22.77 173.67 23.025 173.49 23.4ZM194.45 12.3L192.26 11.58C192.125 12.09 191.81 12.78 191.585 13.155C190.835 14.445 189.53 16.38 186.905 17.985L188.585 19.23C190.055 18.225 191.36 16.905 192.365 15.6H196.58C196.34 16.725 195.47 18.525 194.45 19.695C193.145 21.18 191.48 22.485 188.405 23.4L190.175 24.99C192.995 23.88 194.81 22.5 196.235 20.76C197.585 19.08 198.44 17.085 198.845 15.75C198.965 15.375 199.175 14.955 199.34 14.67L197.81 13.725C197.465 13.83 196.97 13.905 196.505 13.905H193.49C193.505 13.875 193.52 13.86 193.535 13.83C193.715 13.5 194.105 12.825 194.45 12.3ZM205.78 12.12L204.685 13.77C205.675 14.325 207.235 15.345 208.075 15.93L209.2 14.265C208.42 13.725 206.77 12.66 205.78 12.12ZM202.99 22.77L204.115 24.75C205.45 24.51 207.595 23.76 209.125 22.89C211.585 21.48 213.7 19.575 215.095 17.505L213.94 15.465C212.74 17.61 210.655 19.665 208.105 21.09C206.47 21.99 204.67 22.485 202.99 22.77ZM203.47 15.54L202.375 17.205C203.38 17.73 204.94 18.75 205.795 19.335L206.89 17.655C206.125 17.115 204.475 16.08 203.47 15.54ZM219.63 15.525V17.34C219.99 17.31 220.935 17.28 221.49 17.28H226.44V19.095H221.655C221.085 19.095 220.41 19.08 220.02 19.05V20.82C220.365 20.805 221.085 20.79 221.655 20.79H226.44V22.785H220.77C220.23 22.785 219.72 22.755 219.465 22.725V24.57C219.72 24.555 220.335 24.525 220.755 24.525H226.44C226.44 24.75 226.44 24.99 226.425 25.125H228.315C228.315 24.855 228.3 24.345 228.3 24.105V16.575C228.3 16.26 228.3 15.765 228.315 15.57C228.075 15.585 227.52 15.6 227.16 15.6H221.49C220.935 15.6 220.02 15.57 219.63 15.525ZM235.341 12.6L233.931 14.1C235.026 14.865 236.901 16.5 237.681 17.34L239.211 15.78C238.341 14.865 236.391 13.305 235.341 12.6ZM233.466 22.59L234.726 24.57C236.841 24.21 238.776 23.37 240.291 22.455C242.706 21 244.701 18.93 245.841 16.905L244.671 14.79C243.726 16.815 241.776 19.11 239.211 20.625C237.756 21.495 235.806 22.26 233.466 22.59Z" fill="white"/>
<g filter="url(#filter1_d_490_1001)">
<path d="M0 10C0 4.47715 4.47715 0 10 0H134V38H10C4.47715 38 0 33.5228 0 28V10Z" fill="white"/>
<path d="M0.5 10C0.5 4.7533 4.75329 0.5 10 0.5H133.5V37.5H10C4.75329 37.5 0.5 33.2467 0.5 28V10Z" stroke="#1BA0A0"/>
</g>
<path d="M49.5745 13.83L48.3445 12.915C48.0445 13.02 47.4445 13.11 46.7995 13.11H41.5045C41.0545 13.11 40.1395 13.065 39.7345 13.005V15.135C40.0495 15.12 40.8745 15.03 41.5045 15.03H46.5895C46.2595 16.095 45.3445 17.58 44.3545 18.705C42.9445 20.28 40.6195 22.11 38.2045 23.01L39.7495 24.63C41.8045 23.655 43.7995 22.095 45.3895 20.415C46.7995 21.78 48.1945 23.31 49.1695 24.66L50.8795 23.175C49.9945 22.095 48.1795 20.175 46.6945 18.885C47.6995 17.535 48.5395 15.93 49.0495 14.76C49.1845 14.46 49.4545 13.995 49.5745 13.83ZM57.0648 22.56C57.0648 23.16 57.0048 24.06 56.9148 24.66H59.2548C59.1948 24.045 59.1198 22.995 59.1198 22.56V18.315C60.7398 18.87 62.9898 19.74 64.5348 20.55L65.3898 18.48C64.0098 17.805 61.1298 16.74 59.1198 16.155V13.935C59.1198 13.32 59.1948 12.66 59.2548 12.135H56.9148C57.0198 12.66 57.0648 13.41 57.0648 13.935V22.56ZM75.2202 15.09L73.4352 15.675C73.8102 16.455 74.4702 18.27 74.6502 19.005L76.4502 18.375C76.2402 17.685 75.5052 15.735 75.2202 15.09ZM80.7552 16.185L78.6552 15.51C78.4752 17.385 77.7552 19.38 76.7352 20.655C75.4902 22.215 73.4052 23.355 71.7552 23.79L73.3302 25.395C75.0852 24.735 76.9602 23.475 78.3552 21.675C79.3752 20.355 80.0052 18.795 80.3952 17.28C80.4852 16.98 80.5752 16.665 80.7552 16.185ZM71.7402 15.885L69.9402 16.53C70.3002 17.19 71.0502 19.185 71.3052 19.995L73.1352 19.305C72.8352 18.465 72.1152 16.65 71.7402 15.885ZM91.5305 12.3L89.3405 11.58C89.2055 12.09 88.8905 12.78 88.6655 13.155C87.9155 14.445 86.6105 16.38 83.9855 17.985L85.6655 19.23C87.1355 18.225 88.4405 16.905 89.4455 15.6H93.6605C93.4205 16.725 92.5505 18.525 91.5305 19.695C90.2255 21.18 88.5605 22.485 85.4855 23.4L87.2555 24.99C90.0755 23.88 91.8905 22.5 93.3155 20.76C94.6655 19.08 95.5205 17.085 95.9255 15.75C96.0455 15.375 96.2555 14.955 96.4205 14.67L94.8905 13.725C94.5455 13.83 94.0505 13.905 93.5855 13.905H90.5705C90.5855 13.875 90.6005 13.86 90.6155 13.83C90.7955 13.5 91.1855 12.825 91.5305 12.3Z" fill="#20BDBD"/>
<ellipse rx="2.76422" ry="2.47462" transform="matrix(-0.756682 -0.601521 0.605928 -0.751756 143.651 9.61758)" fill="#C6FFFF" fill-opacity="0.7"/>
<ellipse rx="1.13004" ry="1.05984" transform="matrix(-0.756657 -0.601541 0.605898 -0.75177 149.414 6.59574)" fill="#C6FFFF" fill-opacity="0.7"/>
<defs>
<filter id="filter0_d_490_1001" x="134" y="0" width="134" height="41" filterUnits="userSpaceOnUse" color-interpolation-filters="sRGB">
<feFlood flood-opacity="0" result="BackgroundImageFix"/>
<feColorMatrix in="SourceAlpha" type="matrix" values="0 0 0 0 0 0 0 0 0 0 0 0 0 0 0 0 0 0 127 0" result="hardAlpha"/>
<feOffset dy="3"/>
<feComposite in2="hardAlpha" operator="out"/>
<feColorMatrix type="matrix" values="0 0 0 0 0.107483 0 0 0 0 0.629167 0 0 0 0 0.629167 0 0 0 1 0"/>
<feBlend mode="normal" in2="BackgroundImageFix" result="effect1_dropShadow_490_1001"/>
<feBlend mode="normal" in="SourceGraphic" in2="effect1_dropShadow_490_1001" result="shape"/>
</filter>
<filter id="filter1_d_490_1001" x="0" y="0" width="134" height="41" filterUnits="userSpaceOnUse" color-interpolation-filters="sRGB">
<feFlood flood-opacity="0" result="BackgroundImageFix"/>
<feColorMatrix in="SourceAlpha" type="matrix" values="0 0 0 0 0 0 0 0 0 0 0 0 0 0 0 0 0 0 127 0" result="hardAlpha"/>
<feOffset dy="3"/>
<feComposite in2="hardAlpha" operator="out"/>
<feColorMatrix type="matrix" values="0 0 0 0 0.107483 0 0 0 0 0.629167 0 0 0 0 0.629167 0 0 0 1 0"/>
<feBlend mode="normal" in2="BackgroundImageFix" result="effect1_dropShadow_490_1001"/>
<feBlend mode="normal" in="SourceGraphic" in2="effect1_dropShadow_490_1001" result="shape"/>
</filter>
</defs>
</svg>
