<svg width="331" height="80" viewBox="0 0 331 80" fill="none" xmlns="http://www.w3.org/2000/svg">
<path d="M0 45C0 25.67 15.67 10 35 10H296C315.33 10 331 25.67 331 45C331 64.33 315.33 80 296 80H35C15.67 80 0 64.33 0 45Z" fill="#E38C8C"/>
<path d="M0 40C0 20.67 15.67 5 35 5H296C315.33 5 331 20.67 331 40C331 59.33 315.33 75 296 75H35C15.67 75 0 59.33 0 40Z" fill="#579F8E"/>
<mask id="mask0_461_1077" style="mask-type:alpha" maskUnits="userSpaceOnUse" x="0" y="0" width="331" height="70">
<path d="M0 35C0 15.67 15.67 0 35 0H296C315.33 0 331 15.67 331 35C331 54.33 315.33 70 296 70H35C15.67 70 0 54.33 0 35Z" fill="#67C0AB"/>
</mask>
<g mask="url(#mask0_461_1077)">
<path d="M0 35C0 15.67 15.67 0 35 0H296C315.33 0 331 15.67 331 35C331 54.33 315.33 70 296 70H35C15.67 70 0 54.33 0 35Z" fill="#67C0AB"/>
<path d="M169.756 35C56.6488 34.6216 1.89194 21.2838 -10.4023 12.7702L26.9534 -5.6757L255.816 -18.9189C292.541 -15.1352 361.263 -3.40543 342.349 13.2432C323.435 29.8919 219.406 34.6847 169.756 35Z" fill="#8AD7B2"/>
<path d="M49.1768 14.6626C49.1768 18.3197 44.5193 21.2843 38.774 21.2843C33.0286 21.2843 28.3711 18.3197 28.3711 14.6626C28.3711 11.0056 33.0286 8.04102 38.774 8.04102C44.5193 8.04102 49.1768 11.0056 49.1768 14.6626Z" fill="#DBFFE1"/>
<path d="M33.1003 31.6894C33.1003 33.2567 31.1949 34.5272 28.8446 34.5272C26.4942 34.5272 24.5889 33.2567 24.5889 31.6894C24.5889 30.1221 26.4942 28.8516 28.8446 28.8516C31.1949 28.8516 33.1003 30.1221 33.1003 31.6894Z" fill="#DBFFE1"/>
</g>
<path d="M111.359 24.339L109.42 25.149C110.082 26.1063 110.819 27.5545 111.334 28.5608L113.298 27.7017C112.831 26.7935 111.972 25.2472 111.359 24.339ZM114.255 23.2344L112.316 24.0444C113.003 24.9772 113.789 26.4008 114.28 27.4317L116.243 26.5726C115.801 25.7135 114.893 24.1672 114.255 23.2344ZM105.05 24.5599H101.442C101.54 25.149 101.614 26.2781 101.614 26.8181C101.614 27.5545 101.589 28.2663 101.565 28.9536H98.0549C97.1222 28.9536 95.8458 28.9045 94.8149 28.7817V32.0217C95.8704 31.9236 97.2204 31.899 98.0549 31.899H101.295C100.755 35.63 99.5277 38.4036 97.2449 40.6618C96.2631 41.6436 95.0358 42.4782 94.0294 43.0427L96.8767 45.35C101.27 42.2327 103.602 38.4036 104.51 31.899H110.033C110.033 34.5499 109.714 39.4591 109.002 41.0054C108.732 41.6191 108.389 41.8645 107.603 41.8645C106.646 41.8645 105.37 41.7418 104.167 41.5454L104.56 44.81C105.738 44.9082 107.21 45.0309 108.61 45.0309C110.303 45.0309 111.236 44.3682 111.776 43.1409C112.831 40.6373 113.126 33.7645 113.224 31.1136C113.224 30.8436 113.322 30.2299 113.396 29.8126L111.26 28.7817C110.671 28.9045 110.033 28.9536 109.42 28.9536H104.805C104.854 28.2417 104.879 27.5299 104.903 26.769C104.928 26.1799 104.977 25.149 105.05 24.5599ZM120.784 26.3763L121.545 29.2236C123.19 29.1745 125.767 29.1008 128.123 28.9045V32.3899H121.201C120.441 32.3899 119.606 32.3163 118.943 32.2427V35.409C119.581 35.36 120.49 35.3109 121.251 35.3109H128.001C127.534 38.9436 125.571 41.57 121.84 43.2882L124.957 45.4236C129.105 42.92 130.872 39.4345 131.241 35.3109H137.598C138.261 35.3109 139.095 35.36 139.758 35.409V32.2427C139.218 32.2918 138.064 32.3899 137.524 32.3899H131.339V28.4872C132.811 28.2663 134.26 27.9963 135.462 27.6772C135.88 27.579 136.518 27.4072 137.352 27.2108L135.34 24.5108C134.112 25.0753 131.609 25.6399 129.154 25.9835C126.454 26.3763 122.65 26.4254 120.784 26.3763ZM151.153 28.4135L147.864 29.199C148.134 29.7145 148.379 30.3036 148.551 30.9417C148.723 31.4817 148.944 32.2672 149.189 33.2245C148.06 33.4454 147.176 33.5927 146.833 33.6418C146.023 33.789 145.36 33.8627 144.575 33.9363L145.335 36.8818C146.072 36.71 147.864 36.3418 149.926 35.9C150.809 39.2382 151.816 43.0673 152.184 44.3927C152.38 45.08 152.552 45.89 152.626 46.5527L155.964 45.7182C155.767 45.2273 155.448 44.1227 155.301 43.7055C154.933 42.4291 153.877 38.6491 152.945 35.2618C155.596 34.7218 158.05 34.2063 158.639 34.1081C157.976 35.3109 156.258 37.3972 155.006 38.5263L157.706 39.8763C159.425 38.0354 161.904 34.3536 162.935 32.1936L160.971 30.7945C160.627 30.9663 160.161 31.1136 159.719 31.1872C158.762 31.4081 155.326 32.0708 152.208 32.6599C151.938 31.7027 151.717 30.8681 151.546 30.279C151.398 29.6408 151.251 28.9781 151.153 28.4135ZM177.809 24.3144L174.569 24.0444C174.52 24.9281 174.348 25.8854 174.078 26.8672C173.686 26.8672 173.268 26.8672 172.9 26.8672C171.648 26.8672 169.832 26.769 168.58 26.5726V29.4445C169.93 29.5426 171.722 29.5917 172.728 29.5917C172.827 29.5917 172.925 29.5917 173.047 29.5917C171.943 31.8008 170.2 33.9854 167.623 36.3663L170.249 38.33C171.084 37.25 171.796 36.3663 172.532 35.63C173.465 34.7218 174.987 33.9363 176.361 33.9363C177.048 33.9363 177.711 34.1572 178.079 34.7709C175.281 36.219 172.336 38.1827 172.336 41.3245C172.336 44.4909 175.183 45.4236 179.037 45.4236C181.344 45.4236 184.363 45.2273 185.983 45.0064L186.081 41.84C183.921 42.2573 181.197 42.5273 179.11 42.5273C176.705 42.5273 175.551 42.1591 175.551 40.8091C175.551 39.5818 176.533 38.6245 178.374 37.5691C178.349 38.6491 178.325 39.8272 178.251 40.5636H181.197C181.172 39.4345 181.123 37.6181 181.098 36.2436C182.596 35.5563 183.995 35.0163 185.099 34.5745C185.934 34.2554 187.235 33.7645 188.02 33.5436L186.793 30.6963C185.885 31.1627 185.026 31.5554 184.068 31.9727C183.062 32.4145 182.031 32.8318 180.755 33.4208C180.215 32.169 178.987 31.5308 177.49 31.5308C176.68 31.5308 175.355 31.7272 174.717 32.0217C175.207 31.3099 175.698 30.4263 176.116 29.5181C178.767 29.4445 181.786 29.2481 184.118 28.9045L184.142 26.0572C181.982 26.4254 179.528 26.6463 177.196 26.769C177.515 25.7381 177.687 24.9281 177.809 24.3144ZM204.687 36.71H200.367V32.4636H204.687V36.71ZM197.618 29.9108V39.2382H207.632V29.9108H197.618ZM195.261 42.0854V27.0144H210.013V42.0854H195.261ZM192.218 24.0199V46.1109H195.261V44.81H210.013V46.1109H213.204V24.0199H192.218ZM231 24.2163H227.44C227.514 24.5108 227.612 25.3453 227.686 26.3517C227.711 26.5481 227.711 26.7935 227.735 27.1126C224.397 27.1617 219.93 27.2599 217.131 27.2599L217.205 30.2299C220.224 30.0581 224.053 29.9108 227.76 29.8617C227.784 30.4017 227.784 30.9663 227.784 31.5063C227.465 31.4572 227.146 31.4327 226.802 31.4327C224.127 31.4327 221.893 33.249 221.893 36.0227C221.893 39.0172 224.225 40.5391 226.115 40.5391C226.508 40.5391 226.876 40.49 227.22 40.4163C225.87 41.8891 223.71 42.6991 221.23 43.2145L223.857 45.8164C229.846 44.1473 231.711 40.0727 231.711 36.8818C231.711 35.6054 231.417 34.4518 230.828 33.519C230.828 32.439 230.803 31.089 230.803 29.8372C234.141 29.8372 236.424 29.8863 237.897 29.9599L237.921 27.0635C236.645 27.039 233.282 27.0881 230.803 27.0881C230.828 26.7935 230.828 26.5235 230.828 26.3272C230.852 25.9344 230.951 24.609 231 24.2163ZM224.839 35.9736C224.839 34.6727 225.771 34.0099 226.729 34.0099C227.391 34.0099 227.981 34.3045 228.324 34.869C228.668 37.0291 227.76 37.8145 226.729 37.8145C225.747 37.8145 224.839 37.1027 224.839 35.9736Z" fill="white"/>
</svg>
